HIERARCHY
ROOT Hips
{
	OFFSET 59.216541 104.939850 -11.937598
	CHANNELS 6 Xposition Yposition Zposition Xrotation Yrotation Zrotation
	JOINT Chest
	{
		OFFSET 0.451118 13.515518 1.811459
		CHANNELS 3 Xrotation Yrotation Zrotation
		JOINT Chest2
		{
			OFFSET -0.096783 20.281113 6.908935
			CHANNELS 3 Xrotation Yrotation Zrotation
			JOINT Chest3
			{
				OFFSET -2.051327 14.435211 3.199476
				CHANNELS 3 Xrotation Yrotation Zrotation
				JOINT Neck
				{
					OFFSET -1.182671 16.801071 3.865423
					CHANNELS 3 Xrotation Yrotation Zrotation
					JOINT Head
					{
						OFFSET -2.151047 9.843994 2.880351
						CHANNELS 3 Xrotation Yrotation Zrotation
						End Site
						{
							OFFSET -2.165630 9.860901 2.810771
						}
					}
				}
				JOINT LeftCollar
				{
					OFFSET 4.103901 13.025513 3.911325
					CHANNELS 3 Xrotation Yrotation Zrotation
					JOINT LeftUpArm
					{
						OFFSET 11.816528 2.764008 -12.697606
						CHANNELS 3 Xrotation Yrotation Zrotation
						JOINT LeftLowArm
						{
							OFFSET 32.467285 -8.983795 -2.212373
							CHANNELS 3 Xrotation Yrotation Zrotation
							JOINT LeftHand
							{
								OFFSET 19.446609 7.320099 21.660849
								CHANNELS 3 Xrotation Yrotation Zrotation
								End Site
								{
									OFFSET 4.250175 1.599884 4.734095
								}
							}
						}
					}
				}
				JOINT RightCollar
				{
					OFFSET -3.545448 11.735916 7.176825
					CHANNELS 3 Xrotation Yrotation Zrotation
					JOINT RightUpArm
					{
						OFFSET -15.774113 -7.271881 -2.606453
						CHANNELS 3 Xrotation Yrotation Zrotation
						JOINT RightLowArm
						{
							OFFSET -11.824818 -31.585602 -1.502948
							CHANNELS 3 Xrotation Yrotation Zrotation
							JOINT RightHand
							{
								OFFSET -2.088036 -24.138390 17.718168
								CHANNELS 3 Xrotation Yrotation Zrotation
								End Site
								{
									OFFSET -0.456366 -5.275681 3.872486
								}
							}
						}
					}
				}
			}
		}
	}
	JOINT LeftUpLeg
	{
		OFFSET 8.599888 0.400101 -5.128449
		CHANNELS 3 Xrotation Yrotation Zrotation
		JOINT LeftLowLeg
		{
			OFFSET -3.494911 -46.540981 -8.106346
			CHANNELS 3 Xrotation Yrotation Zrotation
			JOINT LeftFoot
			{
				OFFSET -26.174850 -31.770052 -17.495987
				CHANNELS 3 Xrotation Yrotation Zrotation
				JOINT LeftToe
				{
					OFFSET 4.894230 -22.117462 6.813534
					CHANNELS 3 Xrotation Yrotation Zrotation
					End Site
					{
						OFFSET 15.680611 -12.096736 12.936241
					}
				}
			}
		}
	}
	JOINT RightUpLeg
	{
		OFFSET -8.599895 -0.400299 5.128425
		CHANNELS 3 Xrotation Yrotation Zrotation
		JOINT RightLowLeg
		{
			OFFSET 16.451538 -41.656570 15.430103
			CHANNELS 3 Xrotation Yrotation Zrotation
			JOINT RightFoot
			{
				OFFSET 14.133392 -39.906048 -14.433757
				CHANNELS 3 Xrotation Yrotation Zrotation
				JOINT RightToe
				{
					OFFSET 15.709534 -17.601341 1.720376
					CHANNELS 3 Xrotation Yrotation Zrotation
					End Site
					{
						OFFSET 13.672806 -10.801199 15.998270
					}
				}
			}
		}
	}
}
MOTION
Frames: 7
Frame Time: 0.033333
2.871159 105.106308 -1.111664 1.047811 -34.211069 -3.783294 -11.938652 -0.231721 1.919983 0.428929 4.685327 -4.064510 2.140489 9.394812 1.891823 -2.263713 7.954163 -3.592178 -0.000001 -0.000001 0.000001 -1.873447 6.393184 -21.019697 3.822946 7.623714 -37.091001 33.799796 18.543516 -32.940930 -0.000002 -0.000001 0.000002 7.620339 2.030983 1.411366 -2.221766 17.925763 15.832881 16.192857 7.525514 -6.990708 -0.000000 0.000004 -0.000003 -3.688545 -1.634734 9.082512 -7.533513 -0.917612 25.967003 -6.791704 -10.483627 -9.127950 -0.000001 -0.000002 -0.000003 21.840816 -3.224112 -21.064034 -24.890108 -14.953379 -5.769442 -32.666476 -0.865303 8.816027 -0.000000 0.000004 0.000003 
2.868877 105.105034 -1.114560 0.927155 -33.862418 -3.756777 -11.685319 -0.207049 1.814425 0.764016 4.687223 -4.219021 1.645485 9.214855 1.946501 -2.306431 7.775898 -3.458878 0.000000 0.000000 0.000001 -1.798413 6.073703 -21.143853 3.721099 7.306945 -37.074315 33.684820 18.700045 -32.632567 -0.000003 0.000002 -0.000001 7.626115 2.158845 1.406417 -2.419213 18.109692 16.028154 16.321620 7.387146 -7.414732 0.000003 0.000004 -0.000003 -3.567400 -1.623620 8.986167 -7.574555 -0.917811 26.039015 -7.313383 -10.568720 -9.165477 -0.000000 -0.000003 0.000001 22.039468 -3.229794 -21.148731 -25.005644 -15.001761 -5.694350 -32.192037 -0.940389 8.666501 0.000002 0.000004 0.000001 
2.868473 105.106880 -1.113708 0.908595 -33.753190 -3.702700 -11.750604 -0.188639 1.759912 0.672572 4.600894 -4.111659 1.856756 9.288830 1.775515 -2.947343 7.582062 -3.211606 0.000000 0.000000 0.000001 -1.803809 6.075475 -21.182215 3.710485 7.201551 -36.981192 33.884483 18.821339 -32.765428 0.000002 -0.000001 0.000003 7.634369 1.579452 1.446361 -2.697285 18.270473 16.018653 16.346347 7.527166 -7.305346 -0.000000 0.000003 -0.000004 -3.678152 -1.609751 9.053931 -7.462459 -0.940683 25.923141 -7.354649 -10.644679 -9.313477 -0.000002 -0.000000 0.000001 22.039135 -3.244646 -21.154513 -25.013259 -14.976626 -5.723378 -32.152033 -0.965894 8.632204 0.000006 0.000002 0.000004 
2.865025 105.105423 -1.117832 0.849058 -33.432970 -3.758313 -11.257876 -0.115444 1.480509 0.387582 4.501195 -3.862953 1.780510 9.149326 1.667542 -2.589462 7.549518 -3.200245 -0.000001 0.000001 0.000000 -1.688895 5.564538 -21.331562 3.752643 7.073653 -36.834046 33.640119 18.605989 -32.518053 -0.000001 -0.000001 0.000003 7.645713 1.883055 1.442568 -2.631739 18.274238 15.944213 16.496182 7.390262 -7.326297 0.000001 0.000001 -0.000003 -3.621645 -1.681664 9.154256 -7.326148 -1.005319 25.760210 -7.655215 -10.602118 -9.249300 0.000002 -0.000002 -0.000001 22.170886 -3.175527 -21.132807 -25.179965 -14.920610 -5.616250 -31.707811 -0.938817 8.574677 0.000005 0.000002 0.000003 
2.865055 105.099113 -1.124002 0.664649 -33.423329 -3.776495 -10.672544 -0.017970 1.094859 -0.190905 4.344253 -3.421137 2.131261 9.047803 1.369742 -2.601570 7.756719 -3.182353 -0.000001 -0.000000 0.000001 -1.784905 5.637519 -21.287893 3.754478 6.962609 -36.694604 33.560377 18.416478 -32.577250 -0.000001 -0.000001 -0.000000 7.619459 1.842020 1.463683 -2.782143 18.358046 15.854735 16.427378 7.346568 -7.340846 -0.000000 0.000003 -0.000004 -3.386928 -1.693628 9.015337 -7.370606 -0.975882 25.724268 -7.440944 -10.542682 -9.226609 -0.000001 -0.000001 -0.000000 22.345572 -3.200717 -21.284174 -25.117525 -14.782336 -5.617425 -31.525547 -1.065786 8.669401 0.000003 0.000002 0.000003 
2.864948 105.097328 -1.129280 0.616896 -33.605610 -3.747557 -10.532190 0.066463 0.835480 -0.260116 4.319217 -3.351546 2.030370 8.712425 1.452575 -2.526772 8.056492 -3.364411 0.000000 -0.000000 0.000001 -1.943697 6.030348 -21.269057 3.683862 6.835925 -36.693060 33.403829 18.685475 -32.405501 -0.000001 0.000003 0.000003 7.661376 2.800346 1.527083 -2.730518 18.350806 15.668251 16.441862 7.218226 -7.512523 0.000002 0.000003 -0.000004 -3.611461 -1.745708 9.085051 -7.139517 -0.998437 25.469060 -7.202806 -10.317553 -8.922471 -0.000000 -0.000002 -0.000001 22.281972 -3.197658 -21.323357 -25.102463 -14.748130 -5.643095 -31.281686 -0.975494 8.608743 0.000003 0.000004 0.000001 
2.865593 105.093979 -1.135751 1.016221 -33.707390 -3.753030 -11.245749 -0.044561 1.294286 0.280572 4.496370 -3.791750 1.785360 8.760355 1.704673 -2.454410 8.047629 -3.360241 0.000000 -0.000001 0.000001 -1.806182 5.585957 -21.166789 3.719130 7.048239 -36.658937 32.868622 17.945103 -31.987927 0.000001 -0.000006 0.000002 7.598228 2.105483 1.556931 -3.036728 18.471082 15.616881 16.700497 7.152904 -7.082947 0.000002 0.000000 -0.000001 -4.003892 -1.797138 9.336127 -7.094379 -1.058680 25.371405 -7.325257 -10.243993 -8.810759 0.000003 -0.000001 -0.000000 22.014311 -3.139166 -21.162139 -25.058528 -14.680061 -5.639615 -31.606564 -0.972448 8.714506 -0.000001 0.000004 0.000003 
